<svg version="1.1" xmlns="http://www.w3.org/2000/svg" viewBox="0 0 811 556.2685169498889" width="1622" height="1112.5370338997777">
  <!-- svg-source:excalidraw -->
  
  <defs>
    <style>
      @font-face {
        font-family: "Virgil";
        src: url("https://excalidraw.com/Virgil.woff2");
      }
      @font-face {
        font-family: "Cascadia";
        src: url("https://excalidraw.com/Cascadia.woff2");
      }
    </style>
  </defs>
  <rect x="0" y="0" width="811" height="556.2685169498889" fill="#ffffff"></rect><g transform="translate(78 399.2685169498889) rotate(0 322 73.5)"><text x="0" y="19.5" font-family="Cascadia, Segoe UI Emoji" font-size="20px" fill="#000000" text-anchor="start" style="white-space: pre;" direction="ltr">We can describe</text><text x="0" y="44" font-family="Cascadia, Segoe UI Emoji" font-size="20px" fill="#000000" text-anchor="start" style="white-space: pre;" direction="ltr">programming as the process of breaking </text><text x="0" y="68.5" font-family="Cascadia, Segoe UI Emoji" font-size="20px" fill="#000000" text-anchor="start" style="white-space: pre;" direction="ltr">a large, complex task into smaller and smaller subtasks</text><text x="0" y="93" font-family="Cascadia, Segoe UI Emoji" font-size="20px" fill="#000000" text-anchor="start" style="white-space: pre;" direction="ltr">until the subtasks are simple enough</text><text x="0" y="117.5" font-family="Cascadia, Segoe UI Emoji" font-size="20px" fill="#000000" text-anchor="start" style="white-space: pre;" direction="ltr">to be performed </text><text x="0" y="142" font-family="Cascadia, Segoe UI Emoji" font-size="20px" fill="#000000" text-anchor="start" style="white-space: pre;" direction="ltr">with sequences of these basic instructions.</text></g><g transform="translate(38 254.26851694988892) rotate(0 70.5 12.5)"><text x="0" y="20" font-family="Cascadia, Segoe UI Emoji" font-size="20px" fill="#000000" text-anchor="start" style="white-space: pre;" direction="ltr">complex task</text></g><g stroke-linecap="round" transform="translate(215.13197081509907 223.28010532069135) rotate(0 35.339290345615666 53.625409397054625)"><path d="M0.46 0.3 L71.58 -1.93 L69.51 105.37 L1.19 108.08" stroke="none" stroke-width="0" fill="#fff"></path><path d="M1.29 -0.39 C22.33 0.87, 44.55 1.81, 72.3 -1.06 M0.37 0.36 C16.2 1.13, 32.72 -0.53, 69.78 0.95 M69.69 -1.67 C72.55 27.26, 69.61 53.73, 70.61 108.89 M70.81 -0.48 C69.64 26.33, 69.55 51.45, 70.63 108.22 M71.94 108.8 C45.55 106.54, 15.6 107.87, 1.16 108.1 M70.67 108.22 C47.74 106.26, 25.55 107.93, 0.72 108.06 M-1.02 108.14 C0.87 78.66, 0.61 50.49, 1.74 1.01 M-0.18 107.48 C0.99 74.78, -0.21 39.97, -0.26 -0.13" stroke="#000000" stroke-width="2" fill="none"></path></g><g stroke-linecap="round" transform="translate(207.58453777938485 216.26001603497713) rotate(0 35.339290345615666 53.625409397054625)"><path d="M0.3 0.91 L68.75 -1.16 L68.8 108.45 L0.83 105.72" stroke="none" stroke-width="0" fill="#fff"></path><path d="M-0.39 -0.91 C19.98 -2.38, 40 1.17, 69.62 -1.34 M0.36 -0.29 C29.03 -0.51, 55.62 -1.16, 71.63 -0.41 M69.01 1.08 C69.72 38.26, 68.46 80.18, 72.32 106.1 M70.2 -0.48 C71.7 25.97, 70.81 53.04, 71.65 108.09 M72.22 109.22 C44.93 106.82, 21.77 108.86, 0.85 107.56 M71.64 106.61 C50.37 106.72, 32.68 107.97, 0.81 106.84 M0.89 108.36 C-0.73 73.56, -1.09 39.92, 1.01 0.23 M0.23 107.56 C0.41 81.07, -0.96 56.41, -0.13 0.23" stroke="#000000" stroke-width="2" fill="none"></path></g><g stroke-linecap="round" transform="translate(198.1894484936695 208.00610978497735) rotate(0 35.339290345615666 53.625409397054625)"><path d="M0.91 -1.93 L69.51 -1.88 L71.87 108.08 L-1.53 108.45" stroke="none" stroke-width="0" fill="#fff"></path><path d="M-0.91 0.91 C19.62 1.99, 44.71 -0.92, 69.34 1.99 M-0.29 0.78 C17.44 -1.14, 34.47 0.7, 70.26 0.74 M71.76 -0.47 C68.29 25.58, 70.08 56.27, 69.53 106.2 M70.2 0.33 C70.25 38.5, 70.77 79.08, 71.51 107.72 M72.65 105.99 C43.08 107.86, 18.39 108.64, 0.31 106.73 M70.04 106.28 C49.17 108.63, 29.43 108.74, -0.41 107.47 M1.11 106.49 C1.39 74.26, 2.29 44.52, 0.23 -1.28 M0.3 108.21 C-0.7 69.17, -0.07 31.79, 0.23 0.15" stroke="#000000" stroke-width="2" fill="none"></path></g><g stroke-linecap="round"><g transform="translate(210.17587508058045 256.75334683233) rotate(0 23.50547499053124 -1.1193270763062628)"><path d="M-0.54 0.54 C5.87 0.8, 31.25 1.98, 39.27 1.27 C47.29 0.55, 46.47 -3.2, 47.55 -3.73 M1.37 -0.21 C8.07 -0.25, 33.72 0.15, 41.37 -0.27 C49.03 -0.7, 46.6 -2.15, 47.3 -2.74" stroke="#000000" stroke-width="1" fill="none"></path></g></g><g stroke-linecap="round"><g transform="translate(212.03112731859483 225.28805953349143) rotate(0 22.152108646987756 -1.2934234109042677)"><path d="M0.54 -1.16 C3.57 -1.37, 10.54 -1.83, 17.94 -1.83 C25.34 -1.82, 40.13 -1.28, 44.93 -1.13 M-0.63 0.85 C2.36 0.37, 10.17 -3.26, 17.58 -3.44 C24.99 -3.62, 39.43 -0.78, 43.83 -0.23" stroke="#000000" stroke-width="1" fill="none"></path></g></g><g stroke-linecap="round"><g transform="translate(211.95452780222536 292.6824338038485) rotate(0 23.291607345805005 0.9933706889855785)"><path d="M-1.16 1.11 C3.5 0.87, 21.06 -1.29, 27.39 -0.89 C33.72 -0.49, 33.43 3.62, 36.82 3.51 C40.21 3.41, 45.75 -0.56, 47.74 -1.53 M0.44 0.65 C5.07 0.51, 20.48 0.12, 26.95 0.31 C33.43 0.51, 35.84 1.88, 39.29 1.8 C42.75 1.71, 46.3 0.46, 47.67 -0.19" stroke="#000000" stroke-width="1" fill="none"></path></g></g><g stroke-linecap="round"><g transform="translate(208.77048062069503 303.92558221212727) rotate(0 28.15093107130565 0.12631816839086696)"><path d="M1.11 0.98 C2.61 0.84, 6.83 -1.57, 9.53 -1.97 C12.23 -2.37, 11.13 -1.94, 17.33 -1.44 C23.52 -0.94, 40.58 1.03, 46.7 1.05 C52.82 1.06, 52.83 -0.63, 54.06 -1.37 M0.23 0.44 C2.08 0.54, 9.08 -0.7, 11.91 -0.85 C14.74 -1, 11.31 -0.97, 17.19 -0.44 C23.07 0.1, 40.7 2.39, 47.18 2.38 C53.66 2.37, 54.7 0.13, 56.07 -0.49" stroke="#000000" stroke-width="1" fill="none"></path></g></g><g stroke-linecap="round"><g transform="translate(209.05532351626084 240.34866108675266) rotate(0 23.179348983803322 0.696652600310756)"><path d="M0.98 -0.64 C4.07 -0.72, 9.83 0.11, 17.39 0.61 C24.95 1.1, 41.34 2.17, 46.33 2.32 M0.03 1.65 C3.6 1.77, 12.15 -0.65, 19.68 -0.89 C27.22 -1.13, 40.56 -0.35, 45.25 0.21" stroke="#000000" stroke-width="1" fill="none"></path></g></g><g stroke-linecap="round"><g transform="translate(209.1628117124112 274.8319901225921) rotate(0 23.007097082269922 0.2723104102200864)"><path d="M-0.64 -0.8 C0.73 -0.83, 6.08 0.72, 9.29 0.83 C12.5 0.94, 12.42 -0.49, 18.63 -0.16 C24.85 0.17, 41.92 2.65, 46.58 2.82 M1.23 1.39 C2.45 1.43, 6.16 2.66, 8.97 2.05 C11.78 1.44, 11.82 -2.05, 18.1 -2.27 C24.38 -2.49, 41.55 0.26, 46.65 0.75" stroke="#000000" stroke-width="1" fill="none"></path></g></g><g transform="translate(495 257.2685169498889) rotate(0 93.5 12.5)"><text x="0" y="20" font-family="Cascadia, Segoe UI Emoji" font-size="20px" fill="#000000" text-anchor="start" style="white-space: pre;" direction="ltr">smaller subtasks</text></g><g stroke-linecap="round" transform="translate(700.6607096543846 216.64310755283424) rotate(0 35.33929034561572 53.625409397054625)"><path d="M0.21 0.33 L70.75 -0.97 L68.8 106.84 L-1.85 105.64" stroke="none" stroke-width="0" fill="#fff"></path><path d="M-1.07 1.57 C17.34 1.13, 32.94 -1.43, 71.29 -1.53 M0.24 0.01 C17.56 0.68, 36.2 0.64, 70.88 -0.39 M71.48 -1.17 C71.38 21.27, 72.26 44.15, 71.13 107.82 M70.41 -0.97 C70.67 28.53, 71.32 57.02, 71.32 107.9 M72.47 105.36 C52.29 108.5, 31.43 106.66, 0.3 108 M70.93 107.33 C49.55 108.12, 28.53 107.77, -0.22 106.53 M0.26 107.34 C0.09 74.12, 2.39 38.01, 1.96 0.91 M0.81 107.47 C0.52 81.63, 0.74 56.69, 0.2 -0.86" stroke="#000000" stroke-width="2" fill="none"></path></g><g stroke-linecap="round"><g transform="translate(712.6471362412956 265.3903446001869) rotate(0 23.321395213826918 -1.0252462169449927)"><path d="M-0.64 0.94 C6.1 0.96, 33.31 1.98, 41.3 1.23 C49.29 0.48, 46.34 -2.68, 47.29 -3.56 M1.22 0.39 C7.81 0.61, 33.2 0.15, 40.81 -0.32 C48.42 -0.8, 45.79 -1.97, 46.89 -2.48" stroke="#000000" stroke-width="1" fill="none"></path></g></g><g stroke-linecap="round"><g transform="translate(714.5023884793097 233.92505730134832) rotate(0 22.541655006821088 -1.5210621964834559)"><path d="M0.94 0.87 C3.74 0.63, 10.55 -1.96, 17.91 -2.1 C25.27 -2.24, 40.65 -0.18, 45.1 0.04 M-0.02 0.29 C2.62 -0.24, 10.17 -3.45, 17.53 -3.85 C24.88 -4.25, 39.61 -2.76, 44.1 -2.11" stroke="#000000" stroke-width="1" fill="none"></path></g></g><g stroke-linecap="round"><g transform="translate(714.4257889629405 301.31943157170537) rotate(0 23.86964691418359 -0.029772465233179446)"><path d="M0.87 1.08 C5.5 0.8, 20.93 -0.77, 27.12 -0.72 C33.3 -0.66, 34.53 1.67, 37.99 1.4 C41.45 1.13, 46.14 -1.82, 47.87 -2.34 M-0.13 0.6 C4.46 0.4, 20.28 0.3, 26.54 0.58 C32.8 0.85, 33.86 2.57, 37.42 2.23 C40.97 1.9, 46.3 -0.86, 47.87 -1.43" stroke="#000000" stroke-width="1" fill="none"></path></g></g><g stroke-linecap="round"><g transform="translate(711.2417417814102 312.56257997998415) rotate(0 27.435711699432773 -0.5042902778522489)"><path d="M1.08 0.71 C2.54 0.43, 7.35 -0.46, 9.7 -0.8 C12.06 -1.13, 9.18 -1.54, 15.21 -1.31 C21.24 -1.08, 39.31 0.75, 45.89 0.59 C52.47 0.43, 53.44 -1.94, 54.69 -2.28 M0.18 0.03 C1.36 -0.7, 5.6 -2.68, 8.51 -2.73 C11.42 -2.77, 11.39 -0.98, 17.63 -0.24 C23.86 0.49, 39.99 1.96, 45.94 1.69 C51.9 1.41, 51.99 -1.25, 53.37 -1.89" stroke="#000000" stroke-width="1" fill="none"></path></g></g><g stroke-linecap="round"><g transform="translate(711.526584676976 248.98565885460954) rotate(0 23.037430779022657 0.44301809381653356)"><path d="M0.71 -0.46 C3.65 -0.89, 10.94 -1.84, 18.56 -1.51 C26.19 -1.18, 41.73 0.9, 46.46 1.51 M-0.38 -1.75 C2.36 -1.54, 10.17 -1.18, 17.81 -0.45 C25.45 0.28, 40.56 1.99, 45.45 2.64" stroke="#000000" stroke-width="1" fill="none"></path></g></g><g stroke-linecap="round"><g transform="translate(711.6340728731263 283.468987890449) rotate(0 23.572048816272513 1.1988097407145801)"><path d="M-0.46 0.37 C0.55 0.41, 4.13 1.12, 7.18 0.96 C10.22 0.79, 11.15 -0.77, 17.82 -0.61 C24.5 -0.45, 42.53 1.35, 47.21 1.9 M1.5 -0.48 C2.79 -0.34, 6.85 2.05, 9.41 2.25 C11.97 2.44, 10.5 0.57, 16.86 0.7 C23.23 0.82, 42.5 2.54, 47.61 3.01" stroke="#000000" stroke-width="1" fill="none"></path></g></g><g transform="translate(334 105.26851694988892) rotate(0 58.5 12.5)"><text x="0" y="20" font-family="Cascadia, Segoe UI Emoji" font-size="20px" fill="#000000" text-anchor="start" style="white-space: pre;" direction="ltr">Programing</text></g><g stroke-linecap="round" transform="translate(329.595881009378 10) rotate(0 63.941917866069446 38.268516949888834)"><path d="M0.61 0.64 C29.03 0.13, 59.91 -0.49, 127.81 1.31 M0.74 0.92 C33.21 0.81, 66.28 1.16, 128.42 -0.37 M128.41 0.2 C128.44 20.46, 129.63 42.95, 128.23 75.44 M127.69 -0.69 C127.73 23.03, 128.54 43.22, 127.04 76.93 M126.15 77.55 C103.4 78.23, 74.2 75.22, 0.65 77.37 M128.06 76.74 C86.96 77.09, 47.08 77.98, 0.71 76.2 M1.63 75.54 C-0.41 60.38, 0.93 39.79, 0.96 1.35 M-0.59 76.77 C0.12 60.31, -0.74 45.33, 0.89 -0.88" stroke="#000000" stroke-width="1" fill="none"></path></g><g stroke-linecap="round"><g transform="translate(328.5202832584828 20.71653439224434) rotate(0 64.50441139815194 0.13162636330815758)"><path d="M0.37 0.39 C21.61 0.45, 106.53 -0.29, 127.76 -0.5 M-0.9 -0.46 C20.68 -0.15, 108.07 0.7, 129.91 0.77" stroke="#000000" stroke-width="1" fill="none"></path></g></g><g stroke-linecap="round" transform="translate(334.08391647833287 14.27156980000882) rotate(0 2.5009765625 2.5009765625000284)"><path d="M2.5 0 C3.01 -0.03, 3.7 0.24, 4.11 0.59 C4.52 0.93, 4.87 1.54, 4.96 2.07 C5.06 2.59, 4.93 3.29, 4.67 3.75 C4.4 4.22, 3.86 4.67, 3.36 4.85 C2.85 5.03, 2.15 5.03, 1.65 4.85 C1.14 4.67, 0.6 4.22, 0.34 3.75 C0.07 3.29, -0.06 2.59, 0.04 2.07 C0.13 1.54, 0.48 0.93, 0.89 0.59 C1.3 0.24, 2.23 0.09, 2.5 0 C2.77 -0.09, 2.5 0.01, 2.5 0.05 M2.5 0 C3.01 -0.03, 3.7 0.24, 4.11 0.59 C4.52 0.93, 4.87 1.54, 4.96 2.07 C5.06 2.59, 4.93 3.29, 4.67 3.75 C4.4 4.22, 3.86 4.67, 3.36 4.85 C2.85 5.03, 2.15 5.03, 1.65 4.85 C1.14 4.67, 0.6 4.22, 0.34 3.75 C0.07 3.29, -0.06 2.59, 0.04 2.07 C0.13 1.54, 0.48 0.93, 0.89 0.59 C1.3 0.24, 2.23 0.09, 2.5 0 C2.77 -0.09, 2.5 0.01, 2.5 0.05" stroke="none" stroke-width="0" fill="#fa5252"></path><path d="M2.5 0 C3.01 -0.03, 3.7 0.24, 4.11 0.59 C4.52 0.93, 4.87 1.54, 4.96 2.07 C5.06 2.59, 4.93 3.29, 4.67 3.75 C4.4 4.22, 3.86 4.67, 3.36 4.85 C2.85 5.03, 2.15 5.03, 1.65 4.85 C1.14 4.67, 0.6 4.22, 0.34 3.75 C0.07 3.29, -0.06 2.59, 0.04 2.07 C0.13 1.54, 0.48 0.93, 0.89 0.59 C1.3 0.24, 2.23 0.09, 2.5 0 C2.77 -0.09, 2.5 0.01, 2.5 0.05 M2.5 0 C3.01 -0.03, 3.7 0.24, 4.11 0.59 C4.52 0.93, 4.87 1.54, 4.96 2.07 C5.06 2.59, 4.93 3.29, 4.67 3.75 C4.4 4.22, 3.86 4.67, 3.36 4.85 C2.85 5.03, 2.15 5.03, 1.65 4.85 C1.14 4.67, 0.6 4.22, 0.34 3.75 C0.07 3.29, -0.06 2.59, 0.04 2.07 C0.13 1.54, 0.48 0.93, 0.89 0.59 C1.3 0.24, 2.23 0.09, 2.5 0 C2.77 -0.09, 2.5 0.01, 2.5 0.05" stroke="#000000" stroke-width="1" fill="none"></path></g><g stroke-linecap="round" transform="translate(344.34661179083287 14.27156980000882) rotate(0 2.5009765625 2.5009765625000284)"><path d="M2.5 0 C3.01 -0.03, 3.7 0.24, 4.11 0.59 C4.52 0.93, 4.87 1.54, 4.96 2.07 C5.06 2.59, 4.93 3.29, 4.67 3.75 C4.4 4.22, 3.86 4.67, 3.36 4.85 C2.85 5.03, 2.15 5.03, 1.65 4.85 C1.14 4.67, 0.6 4.22, 0.34 3.75 C0.07 3.29, -0.06 2.59, 0.04 2.07 C0.13 1.54, 0.48 0.93, 0.89 0.59 C1.3 0.24, 2.23 0.09, 2.5 0 C2.77 -0.09, 2.5 0.01, 2.5 0.05 M2.5 0 C3.01 -0.03, 3.7 0.24, 4.11 0.59 C4.52 0.93, 4.87 1.54, 4.96 2.07 C5.06 2.59, 4.93 3.29, 4.67 3.75 C4.4 4.22, 3.86 4.67, 3.36 4.85 C2.85 5.03, 2.15 5.03, 1.65 4.85 C1.14 4.67, 0.6 4.22, 0.34 3.75 C0.07 3.29, -0.06 2.59, 0.04 2.07 C0.13 1.54, 0.48 0.93, 0.89 0.59 C1.3 0.24, 2.23 0.09, 2.5 0 C2.77 -0.09, 2.5 0.01, 2.5 0.05" stroke="none" stroke-width="0" fill="#fab005"></path><path d="M2.5 0 C3.01 -0.03, 3.7 0.24, 4.11 0.59 C4.52 0.93, 4.87 1.54, 4.96 2.07 C5.06 2.59, 4.93 3.29, 4.67 3.75 C4.4 4.22, 3.86 4.67, 3.36 4.85 C2.85 5.03, 2.15 5.03, 1.65 4.85 C1.14 4.67, 0.6 4.22, 0.34 3.75 C0.07 3.29, -0.06 2.59, 0.04 2.07 C0.13 1.54, 0.48 0.93, 0.89 0.59 C1.3 0.24, 2.23 0.09, 2.5 0 C2.77 -0.09, 2.5 0.01, 2.5 0.05 M2.5 0 C3.01 -0.03, 3.7 0.24, 4.11 0.59 C4.52 0.93, 4.87 1.54, 4.96 2.07 C5.06 2.59, 4.93 3.29, 4.67 3.75 C4.4 4.22, 3.86 4.67, 3.36 4.85 C2.85 5.03, 2.15 5.03, 1.65 4.85 C1.14 4.67, 0.6 4.22, 0.34 3.75 C0.07 3.29, -0.06 2.59, 0.04 2.07 C0.13 1.54, 0.48 0.93, 0.89 0.59 C1.3 0.24, 2.23 0.09, 2.5 0 C2.77 -0.09, 2.5 0.01, 2.5 0.05" stroke="#000000" stroke-width="1" fill="none"></path></g><g stroke-linecap="round" transform="translate(355.06002825717906 14.722290953855008) rotate(0 2.5009765625 2.5009765625000284)"><path d="M2.5 0 C3.01 -0.03, 3.7 0.24, 4.11 0.59 C4.52 0.93, 4.87 1.54, 4.96 2.07 C5.06 2.59, 4.93 3.29, 4.67 3.75 C4.4 4.22, 3.86 4.67, 3.36 4.85 C2.85 5.03, 2.15 5.03, 1.65 4.85 C1.14 4.67, 0.6 4.22, 0.34 3.75 C0.07 3.29, -0.06 2.59, 0.04 2.07 C0.13 1.54, 0.48 0.93, 0.89 0.59 C1.3 0.24, 2.23 0.09, 2.5 0 C2.77 -0.09, 2.5 0.01, 2.5 0.05 M2.5 0 C3.01 -0.03, 3.7 0.24, 4.11 0.59 C4.52 0.93, 4.87 1.54, 4.96 2.07 C5.06 2.59, 4.93 3.29, 4.67 3.75 C4.4 4.22, 3.86 4.67, 3.36 4.85 C2.85 5.03, 2.15 5.03, 1.65 4.85 C1.14 4.67, 0.6 4.22, 0.34 3.75 C0.07 3.29, -0.06 2.59, 0.04 2.07 C0.13 1.54, 0.48 0.93, 0.89 0.59 C1.3 0.24, 2.23 0.09, 2.5 0 C2.77 -0.09, 2.5 0.01, 2.5 0.05" stroke="none" stroke-width="0" fill="#40c057"></path><path d="M2.5 0 C3.01 -0.03, 3.7 0.24, 4.11 0.59 C4.52 0.93, 4.87 1.54, 4.96 2.07 C5.06 2.59, 4.93 3.29, 4.67 3.75 C4.4 4.22, 3.86 4.67, 3.36 4.85 C2.85 5.03, 2.15 5.03, 1.65 4.85 C1.14 4.67, 0.6 4.22, 0.34 3.75 C0.07 3.29, -0.06 2.59, 0.04 2.07 C0.13 1.54, 0.48 0.93, 0.89 0.59 C1.3 0.24, 2.23 0.09, 2.5 0 C2.77 -0.09, 2.5 0.01, 2.5 0.05 M2.5 0 C3.01 -0.03, 3.7 0.24, 4.11 0.59 C4.52 0.93, 4.87 1.54, 4.96 2.07 C5.06 2.59, 4.93 3.29, 4.67 3.75 C4.4 4.22, 3.86 4.67, 3.36 4.85 C2.85 5.03, 2.15 5.03, 1.65 4.85 C1.14 4.67, 0.6 4.22, 0.34 3.75 C0.07 3.29, -0.06 2.59, 0.04 2.07 C0.13 1.54, 0.48 0.93, 0.89 0.59 C1.3 0.24, 2.23 0.09, 2.5 0 C2.77 -0.09, 2.5 0.01, 2.5 0.05" stroke="#000000" stroke-width="1" fill="none"></path></g><g stroke-opacity="0.9" fill-opacity="0.9" stroke-linecap="round" transform="translate(371.0870892468065 30.774659831870906) rotate(0 21.360101269687846 21.360101269687846)"><path d="M18.58 1.13 C22.85 0.07, 27.65 0.5, 31.61 2.75 C35.57 5.01, 40.77 10.24, 42.31 14.65 C43.86 19.06, 42.5 25.16, 40.89 29.22 C39.28 33.28, 36.52 36.68, 32.65 39 C28.77 41.32, 22.36 43.78, 17.64 43.16 C12.93 42.53, 7.27 38.93, 4.36 35.26 C1.45 31.59, 0.18 25.58, 0.18 21.12 C0.18 16.66, 0.23 12.14, 4.37 8.51 C8.5 4.87, 20.75 0.4, 24.99 -0.7 C29.24 -1.81, 30.14 1.33, 29.85 1.89 M15.1 0.76 C19.44 -0.56, 27.05 -0.32, 31.23 1.6 C35.41 3.52, 38.15 7.89, 40.17 12.28 C42.19 16.66, 44.63 23.45, 43.37 27.9 C42.12 32.36, 36.63 36.45, 32.65 39.01 C28.66 41.57, 24.05 43.83, 19.47 43.27 C14.89 42.72, 8.28 38.9, 5.17 35.69 C2.06 32.48, 1.3 28.47, 0.82 24.01 C0.34 19.55, -0.05 12.63, 2.28 8.94 C4.6 5.24, 12.78 2.9, 14.75 1.84 C16.72 0.77, 13.7 2.38, 14.09 2.55" stroke="none" stroke-width="0" fill="#04aaf7"></path><path d="M20.67 -0.33 C25.02 -0.46, 31.88 2.67, 35.53 5.67 C39.17 8.66, 41.73 13.19, 42.52 17.65 C43.32 22.11, 42.47 28.56, 40.31 32.43 C38.15 36.31, 33.92 39.24, 29.57 40.92 C25.22 42.6, 18.7 43.91, 14.22 42.53 C9.74 41.15, 4.99 36.74, 2.68 32.64 C0.37 28.54, -0.34 22.42, 0.36 17.94 C1.05 13.46, 3.23 8.71, 6.85 5.75 C10.48 2.79, 19.49 1.08, 22.11 0.19 C24.73 -0.71, 22.46 -0.06, 22.55 0.39 M20.65 0.27 C24.88 -0.47, 28.29 0.14, 31.94 2.46 C35.58 4.78, 40.89 9.61, 42.52 14.18 C44.14 18.75, 43.9 25.36, 41.7 29.89 C39.49 34.42, 33.35 39.11, 29.31 41.37 C25.27 43.64, 21.81 44.89, 17.46 43.5 C13.12 42.1, 6.07 36.85, 3.25 33 C0.43 29.15, 0.03 24.78, 0.55 20.37 C1.07 15.96, 3.13 9.87, 6.34 6.54 C9.56 3.2, 17.62 1.45, 19.83 0.36 C22.04 -0.72, 19.64 -0.38, 19.59 0.03" stroke="#000000" stroke-width="1" fill="none"></path></g><g stroke-linecap="round"><g transform="translate(398.1652533087822 46.99901189632857) rotate(0 -3.4669568227483865 6.479860744560767)" fill-rule="evenodd"><path d="M0 0 L-1.83 -0.41 L-7.57 -6.27 L-9.75 -6.1 L-11.36 -4.35 L-12.61 2.37 L-11.27 6.74 L-17.42 8.89 L-18 11.42 L-17.2 13.64 L-15.01 14.04 L-12.38 13.35 L-8.7 9.48 L-3.62 17.87 L-1.49 19.38 L-0.42 18.17 L-3.78 4.8 L-1.52 3.64 L1.39 4.35 L3.16 5.87 L6.21 6.29 L9.24 5.87 L10.81 3.22 L10.8 0.63 L4.22 1.11 L5.49 -5.76 L4.23 -6.26 L2.47 -5.35 L-0.24 -0.92 L0 0" stroke="none" stroke-width="0" fill="#40c057" fill-rule="evenodd"></path><path d="M0 0 C-0.31 -0.07, -0.57 0.63, -1.83 -0.41 C-3.09 -1.46, -5.98 -5.62, -7.57 -6.27 C-9.16 -6.93, -10.52 -5.79, -11.36 -4.35 C-12.2 -2.91, -12.63 0.53, -12.61 2.37 C-12.6 4.22, -10.47 5.65, -11.27 6.74 C-12.07 7.83, -16.44 7.74, -17.42 8.89 C-18.41 10.04, -18.04 12.9, -17.2 13.64 C-16.36 14.39, -13.8 14.04, -12.38 13.35 C-10.96 12.66, -10.16 8.72, -8.7 9.48 C-7.24 10.23, -5 16.42, -3.62 17.87 C-2.24 19.32, -0.39 20.35, -0.42 18.17 C-0.44 15.99, -4.08 7.1, -3.78 4.8 C-3.48 2.5, 0.23 4.17, 1.39 4.35 C2.54 4.53, 1.85 5.61, 3.16 5.87 C4.47 6.12, 7.96 6.74, 9.24 5.87 C10.51 5, 11.64 1.43, 10.8 0.63 C9.97 -0.16, 5.11 2.18, 4.22 1.11 C3.34 0.04, 5.78 -4.68, 5.49 -5.76 C5.19 -6.84, 3.43 -6.15, 2.47 -5.35 C1.52 -4.54, 0.17 -1.81, -0.24 -0.92 C-0.65 -0.03, -0.04 -0.15, 0 0 M0 0 C-0.31 -0.07, -0.57 0.63, -1.83 -0.41 C-3.09 -1.46, -5.98 -5.62, -7.57 -6.27 C-9.16 -6.93, -10.52 -5.79, -11.36 -4.35 C-12.2 -2.91, -12.63 0.53, -12.61 2.37 C-12.6 4.22, -10.47 5.65, -11.27 6.74 C-12.07 7.83, -16.44 7.74, -17.42 8.89 C-18.41 10.04, -18.04 12.9, -17.2 13.64 C-16.36 14.39, -13.8 14.04, -12.38 13.35 C-10.96 12.66, -10.16 8.72, -8.7 9.48 C-7.24 10.23, -5 16.42, -3.62 17.87 C-2.24 19.32, -0.39 20.35, -0.42 18.17 C-0.44 15.99, -4.08 7.1, -3.78 4.8 C-3.48 2.5, 0.23 4.17, 1.39 4.35 C2.54 4.53, 1.85 5.61, 3.16 5.87 C4.47 6.12, 7.96 6.74, 9.24 5.87 C10.51 5, 11.64 1.43, 10.8 0.63 C9.97 -0.16, 5.11 2.18, 4.22 1.11 C3.34 0.04, 5.78 -4.68, 5.49 -5.76 C5.19 -6.84, 3.43 -6.15, 2.47 -5.35 C1.52 -4.54, 0.17 -1.81, -0.24 -0.92 C-0.65 -0.03, -0.04 -0.15, 0 0" stroke="#087f5b" stroke-width="1" fill="none"></path></g></g><g stroke-linecap="round"><g stroke-opacity="0.9" fill-opacity="0.9" transform="translate(372.14615172083404 51.737533395052026) rotate(0 20.03346543585917 0.32365546309267756)"><path d="M-0.04 0.79 C7.06 0.87, 34.64 -0.38, 41.59 -0.37 M-1.53 0.15 C5.47 0.49, 33.34 1.17, 40.38 0.98" stroke="#000000" stroke-width="1" fill="none"></path></g></g><g stroke-linecap="round"><g stroke-opacity="0.9" fill-opacity="0.9" transform="translate(377.2414807506084 36.3030044680857) rotate(0 14.659303301924297 2.6275724513134264)"><path d="M0 0 C0.13 0.38, 0.09 1.58, 0.77 2.28 C1.46 2.97, 2.81 3.68, 4.1 4.19 C5.4 4.7, 6.64 5.13, 8.54 5.34 C10.43 5.55, 12.97 5.55, 15.48 5.45 C17.99 5.34, 21.44 5.28, 23.58 4.71 C25.72 4.14, 27.36 2.86, 28.32 2.03 C29.27 1.2, 29.15 0.12, 29.32 -0.26 M0 0 C0.13 0.38, 0.09 1.58, 0.77 2.28 C1.46 2.97, 2.81 3.68, 4.1 4.19 C5.4 4.7, 6.64 5.13, 8.54 5.34 C10.43 5.55, 12.97 5.55, 15.48 5.45 C17.99 5.34, 21.44 5.28, 23.58 4.71 C25.72 4.14, 27.36 2.86, 28.32 2.03 C29.27 1.2, 29.15 0.12, 29.32 -0.26" stroke="#000000" stroke-width="1" fill="none"></path></g></g><g stroke-opacity="0.9" fill-opacity="0.9" stroke-linecap="round" transform="translate(385.3153966745276 29.392130202278224) rotate(0 7.764217176558077 22.41115194065469)"><path d="M6.67 0.69 C8.13 -0.38, 10.46 1.51, 11.95 3.81 C13.44 6.12, 15.14 9.95, 15.62 14.52 C16.1 19.08, 15.57 26.58, 14.84 31.19 C14.11 35.8, 12.62 39.97, 11.22 42.16 C9.82 44.36, 8.12 45.19, 6.46 44.36 C4.81 43.53, 2.37 40.85, 1.3 37.2 C0.23 33.54, 0.05 27.34, 0.05 22.43 C0.05 17.53, 0 11.38, 1.3 7.77 C2.61 4.17, 6.83 2.14, 7.9 0.81 C8.96 -0.53, 7.93 -0.64, 7.7 -0.23 M8.77 -1.38 C10.75 -1.25, 13.04 2.13, 13.94 5.77 C14.84 9.41, 13.89 15.42, 14.17 20.47 C14.46 25.52, 16.48 32.32, 15.66 36.08 C14.85 39.84, 11.01 41.78, 9.27 43.04 C7.53 44.3, 6.57 45.38, 5.21 43.65 C3.85 41.92, 1.84 37.01, 1.1 32.66 C0.36 28.32, 0.4 22.38, 0.78 17.6 C1.16 12.82, 2.15 6.82, 3.4 3.99 C4.65 1.16, 7.24 1.01, 8.28 0.6 C9.31 0.19, 9.7 1.44, 9.6 1.55" stroke="#000000" stroke-width="1" fill="none"></path></g><g stroke-linecap="round"><g stroke-opacity="0.9" fill-opacity="0.9" transform="translate(378.75743226023405 68.04009652652672) rotate(0 14.659303301924297 -2.7126223203276254)"><path d="M0 0 C0.68 -0.72, 2.68 -3.4, 4.1 -4.32 C5.53 -5.24, 6.64 -5.3, 8.54 -5.52 C10.43 -5.73, 12.97 -5.73, 15.48 -5.63 C17.99 -5.52, 21.44 -5.45, 23.58 -4.86 C25.72 -4.28, 27.36 -2.95, 28.32 -2.1 C29.27 -1.24, 29.15 -0.12, 29.32 0.27 M0 0 C0.68 -0.72, 2.68 -3.4, 4.1 -4.32 C5.53 -5.24, 6.64 -5.3, 8.54 -5.52 C10.43 -5.73, 12.97 -5.73, 15.48 -5.63 C17.99 -5.52, 21.44 -5.45, 23.58 -4.86 C25.72 -4.28, 27.36 -2.95, 28.32 -2.1 C29.27 -1.24, 29.15 -0.12, 29.32 0.27" stroke="#000000" stroke-width="1" fill="none"></path></g></g><g stroke-linecap="round"><g transform="translate(294 268.2685169498889) rotate(0 91.94097824083178 0.3414830954093304)"><path d="M-0.17 0.3 C30.67 0.45, 154.77 0.13, 185.6 0.17 M-1.72 -0.59 C28.97 -0.24, 154.03 0.9, 184.97 1.27" stroke="#000000" stroke-width="1" fill="none"></path></g><g transform="translate(294 268.2685169498889) rotate(0 91.94097824083178 0.3414830954093304)"><path d="M157.18 12.25 C165.08 7.54, 175.43 3.15, 183.66 1.01 M156.39 10.99 C162.4 9.54, 170.36 5.6, 185.79 2.23" stroke="#000000" stroke-width="1" fill="none"></path></g><g transform="translate(294 268.2685169498889) rotate(0 91.94097824083178 0.3414830954093304)"><path d="M157.39 -8.27 C165.09 -5.93, 175.37 -3.27, 183.66 1.01 M156.6 -9.53 C162.74 -6.15, 170.65 -5.27, 185.79 2.23" stroke="#000000" stroke-width="1" fill="none"></path></g></g><g stroke-linecap="round" transform="translate(10 185.26851694988892) rotate(0 395.5 84.5)"><path d="M0.25 0.34 C241.53 1.45, 484.87 1.27, 791.72 -0.78 M790.82 0.89 C792.26 65.96, 789.57 127.22, 789.85 167.89 M791.36 168.44 C513.51 171.04, 235.54 170.28, 0.69 168.35 M-1.42 167.21 C-0.51 131.69, -1.09 92.36, -0.86 -1.12" stroke="#000000" stroke-width="1.5" fill="none" stroke-dasharray="1.5 7"></path></g></svg>