<svg version="1.1" xmlns="http://www.w3.org/2000/svg" viewBox="0 0 489 411" width="978" height="822">
  <!-- svg-source:excalidraw -->
  
  <defs>
    <style>
      @font-face {
        font-family: "Virgil";
        src: url("https://excalidraw.com/Virgil.woff2");
      }
      @font-face {
        font-family: "Cascadia";
        src: url("https://excalidraw.com/Cascadia.woff2");
      }
    </style>
  </defs>
  <rect x="0" y="0" width="489" height="411" fill="#ffffff"></rect><g stroke-linecap="round" transform="translate(214.6119873817031 187.12933753943173) rotate(0 123.19400630914845 94.94164037854904)"><path d="M26.23 36.05 C26.23 36.05, 26.23 36.05, 26.23 36.05 M26.23 36.05 C26.23 36.05, 26.23 36.05, 26.23 36.05 M6.06 65.82 C14.14 56.92, 21.04 47.53, 39.01 29.27 M7.62 64.38 C18.65 50.77, 29.63 37.06, 39.78 27.23 M7.03 68.82 C19.3 56.13, 31.63 41.36, 52.63 20.32 M6.02 71.16 C24.72 51.62, 40.17 32.48, 52.02 17.88 M5.17 78.59 C26.85 53.62, 47.5 28.48, 58.97 13.34 M6.42 78.1 C16.83 64.35, 29 51.2, 60.04 15.45 M3.09 86.34 C19.67 69.21, 33.92 50.24, 68.16 13.1 M4.75 85.87 C27.12 60, 48.75 34.8, 66.86 12.71 M4.84 93.25 C22.08 71.98, 39.81 49.51, 72.9 9.03 M3.12 91.45 C26.5 68.93, 47.44 43.78, 74.1 10.22 M1.7 100.37 C19.43 82.73, 35.38 62.23, 83.02 9.01 M2.9 98.84 C35.05 63.97, 65.97 28.12, 81.72 8.85 M2.03 107.22 C36.92 68.99, 69.44 30.09, 87.91 8.59 M1.82 106.37 C19.87 85.1, 38.12 65.1, 87.79 7.74 M6.4 111.71 C31.28 80.52, 55.42 50.82, 97.06 6.48 M4.27 109.33 C41.41 67.41, 76.72 26.42, 96.21 4.6 M5.54 113.68 C31.58 85.86, 58.12 54.25, 105.83 2.57 M6.59 114.38 C37.03 78.25, 70.78 40.97, 103.78 2.38 M9.37 116.65 C43.37 75.79, 81.91 33.32, 109.42 0.94 M7.34 117.95 C39.78 81.51, 70.65 46.82, 109.38 1.15 M8.91 122.32 C38.97 91.26, 65.5 56.7, 114.51 0.56 M10.39 121.47 C46.17 77.41, 85.09 34.11, 114.87 1.43 M12.08 126.8 C48.3 83.81, 87.42 39.64, 121.19 2.34 M10.05 126.47 C45.98 85.79, 83.8 42.48, 120.33 2.08 M10.87 133.1 C53.31 85.43, 92.94 36.61, 126.18 2.1 M11.45 131.71 C39.84 99.48, 69.59 67.46, 126.41 -0.01 M13.84 135.18 C38.22 103.51, 65.47 74.89, 129.94 -0.91 M14.31 136.02 C57.32 84.66, 99.75 36.13, 130.79 1.32 M17.34 138.42 C43.04 109.84, 67.94 79.99, 136.47 0.24 M15.37 139.51 C62.22 84.79, 110.64 31.42, 137.21 0.54 M18.57 142.36 C67.15 87.94, 114.39 29.95, 140.57 1.15 M18.75 143.08 C58.96 95.96, 98 51.62, 141.94 0.18 M20.19 144.73 C53.15 106.37, 87.15 67.83, 144.24 1.07 M21.77 145.19 C54.2 108.27, 86.48 72.12, 145.47 2.51 M26.76 148.4 C57 109.99, 91.12 67.61, 149.22 2.93 M24.69 147.55 C52.89 115.7, 78.86 83.72, 150.32 2.36 M27.26 151.21 C61.03 110.36, 96.9 68.59, 154.87 3.36 M26.4 151.7 C74.47 94.53, 123.58 37.39, 154.06 3.85 M30.21 154.37 C80.16 96.45, 129.94 40.86, 158.58 4.12 M30.89 154.18 C71.71 106.91, 110.27 61.98, 159.13 4.66 M32.24 154.55 C76.77 108.11, 114.93 61.13, 164.36 7.68 M32.98 155.35 C80.69 101.13, 127.68 47.34, 162.55 6.22 M36.46 160.91 C87.59 99.17, 135.91 40.11, 167.29 8.56 M36.04 159.36 C76.42 110.63, 119.68 61.16, 167.64 7.99 M39.35 161.28 C72.76 124.29, 104.42 84.89, 170.17 9.29 M38.03 162.09 C71.02 125.61, 102.74 87.86, 171.89 9.74 M42.62 164.13 C81.29 117.68, 121.1 75.51, 175.29 11.08 M42.35 164.12 C75.35 126.51, 108.14 87.75, 176.51 10 M44.36 169.82 C75.6 132.22, 109.14 97.28, 182.02 10.48 M43.27 168.21 C91.62 112.33, 140.07 56.43, 180.48 11.55 M50.04 170.26 C81.36 131.39, 113.05 96.36, 182.94 13.86 M48.7 168.72 C91.93 116.59, 137.13 67.03, 183.31 13.49 M53.69 172.38 C102.39 112.99, 153.38 57.9, 186.9 14.11 M51.8 170.51 C89.72 128.08, 126.73 85.9, 187.93 15.32 M54.04 173.77 C96.5 125.62, 138.25 77.55, 191.69 17.85 M55.3 172.26 C94.09 128.73, 131.27 84.43, 190.4 18.17 M58.14 173.78 C101.78 125.11, 146.23 73.57, 194.78 21.1 M58.47 174.8 C91.85 137.12, 124.89 98.84, 193.61 20.66 M64.66 175.92 C105.72 131.47, 144.01 83.77, 198.98 20.56 M62.89 176.96 C99.99 132.79, 137.53 88.91, 198.02 22.01 M67.85 180.31 C103.35 137.4, 138.65 96.92, 201.22 22.04 M66.87 179.41 C117.39 119.59, 167.25 62.59, 200.39 23.94 M69.4 178.89 C122.96 119.37, 175.19 60.38, 205.6 27.06 M71.23 180.51 C121.47 121.14, 169.83 65.61, 204.51 26.86 M76.24 182.95 C119.67 132.62, 162.34 83.83, 208.01 26.53 M74.67 181.39 C105.28 144.39, 135.23 109.69, 208.6 27.87 M79.92 182.47 C112.91 147.35, 145.01 106.92, 210.49 29.86 M77.51 183.4 C111 147.37, 144.04 109.77, 211.9 30.8 M83 184.45 C128.36 129.84, 176.48 76.38, 212.92 33.66 M82.37 186 C116.82 145.6, 149.54 108.69, 214.61 33.51 M87.22 185.12 C129.69 139.03, 170.64 91.64, 218.98 33.29 M87.02 186.5 C122.3 143.97, 156.84 104.64, 217.89 34.73 M93.05 185.4 C139.23 134.7, 181.68 80.15, 220.67 39.44 M92.15 187.44 C131.9 139.93, 173.94 92.11, 220.04 38.65 M94.98 187.2 C141.36 134.09, 184.96 85.33, 223.82 39.78 M96.54 187.1 C129.81 148.95, 164.09 111.4, 223.9 41.18 M100.56 186.71 C136.55 150.29, 170.23 112.73, 227.1 44.69 M101.34 188.39 C150.99 130.92, 200.03 73.96, 226.91 44.24 M104.91 187.85 C134.86 154.67, 167.31 117.15, 227.16 45.66 M105.76 188.41 C143.69 143.07, 182.59 99.35, 228.4 48.01 M109.2 187.47 C150.51 140.04, 194.71 92.24, 232.54 49.56 M110.83 188.52 C146.93 145.17, 184.14 103.7, 230.58 50.24 M117.21 187.32 C148.83 150.7, 178.42 116.36, 232.88 53.47 M115.19 189.14 C159.37 135.83, 203.98 85.84, 233.03 53.68 M121.77 191.35 C144.37 159.95, 166.68 135.49, 235.38 56.1 M120.82 189.74 C157.17 147.9, 193.64 104.37, 236.41 58.4 M123.3 190.92 C166.17 139.41, 213.27 90.68, 237.35 61.38 M124.73 190.81 C155.87 154.51, 185.5 120.05, 238.21 60 M129.64 193.55 C154.96 164.71, 176.27 135.69, 238.64 65.88 M130.19 191.39 C174.16 141.59, 216.31 91.28, 240.5 63.85 M135.17 190.94 C166.84 152.97, 202.68 116.38, 240.89 67.85 M134.95 189.78 C162.78 158.57, 191.14 125.36, 240.39 68.9 M140.72 188.23 C163.55 162.86, 189.13 137.27, 243.94 74.21 M142.51 189.62 C173.84 151.12, 205.93 113.96, 241.69 73.36 M148.72 187.95 C174.91 157.46, 199.26 124.69, 241.73 81.31 M148.45 188.55 C174.35 156.82, 201.79 126.2, 242.07 80.22 M153.62 187.83 C178.66 158.43, 204.2 131.5, 242.75 85.9 M154.16 186.77 C189.82 149.28, 223.4 108.38, 242.79 85.03 M161.82 185.01 C185.77 154.1, 213.42 123.95, 246.61 89.18 M159.97 186.01 C188.62 151.92, 218.87 116.78, 244.42 88.63 M166.79 184.55 C190.88 153.99, 220.04 123.54, 247.15 93.25 M165.51 184.78 C190.49 157.37, 215.54 130.1, 245.33 94.37 M174.22 182.67 C197.88 156.04, 219.58 130.53, 247.61 98.14 M174.19 184.4 C196.97 157.22, 220.49 130.6, 246.02 99.94 M181.87 178.53 C197.94 158.95, 216.39 140.31, 243.88 110.84 M182.21 179.44 C198.39 159.82, 216.58 140.69, 243.65 109.04 M192.83 173.97 C209.15 156.36, 228.02 135.06, 240.14 120.44 M191.13 174.32 C207.47 157.68, 221.52 141.64, 238.93 119.4 M201.21 170.49 C211.22 157.16, 224.77 141.04, 238.2 129.99 M200.76 170.96 C214.05 155.98, 226.67 140.76, 236.72 129.28" stroke="#fd7e14" stroke-width="0.5" fill="none"></path><path d="M136.31 -0.17 C150.92 -0.22, 167.72 5.51, 181.29 11.17 C194.87 16.83, 207.96 24.94, 217.77 33.77 C227.57 42.59, 235.38 53.17, 240.14 64.13 C244.89 75.1, 247.18 87.92, 246.29 99.55 C245.4 111.18, 240.88 123.22, 234.8 133.9 C228.72 144.58, 220.35 155.67, 209.8 163.62 C199.25 171.58, 185.39 177.38, 171.51 181.62 C157.62 185.86, 141.8 188.83, 126.49 189.07 C111.19 189.32, 93.72 186.92, 79.66 183.08 C65.6 179.24, 53.23 173.75, 42.14 166.03 C31.05 158.32, 20.17 147.2, 13.14 136.78 C6.11 126.36, 1.45 114.89, -0.06 103.5 C-1.56 92.1, -0.23 79.6, 4.1 68.41 C8.44 57.22, 16.73 45.53, 25.96 36.36 C35.18 27.2, 46.56 19.23, 59.46 13.41 C72.35 7.58, 89.18 3.32, 103.33 1.41 C117.49 -0.5, 136.79 1.55, 144.39 1.95 C151.99 2.36, 149.36 2.31, 148.92 3.85 M139.49 0.72 C153.82 0.81, 169.04 6.45, 182.36 12.12 C195.68 17.8, 209.52 26.07, 219.41 34.78 C229.29 43.49, 237.35 53.24, 241.66 64.41 C245.98 75.58, 246.58 89.78, 245.3 101.8 C244.02 113.83, 240.06 126.22, 233.97 136.57 C227.89 146.93, 219.46 156.11, 208.8 163.93 C198.14 171.75, 184.09 179.32, 169.99 183.5 C155.9 187.68, 139.26 188.8, 124.22 189.01 C109.19 189.21, 94.06 188.6, 79.75 184.74 C65.45 180.88, 49.77 173.75, 38.41 165.85 C27.05 157.94, 17.92 147.83, 11.59 137.31 C5.25 126.78, 1.33 114.29, 0.39 102.7 C-0.55 91.12, 1.33 79.08, 5.94 67.79 C10.54 56.49, 18.83 44.13, 28.03 34.94 C37.23 25.74, 48.19 18.29, 61.13 12.61 C74.07 6.93, 92.47 2.59, 105.65 0.85 C118.83 -0.89, 134.42 2, 140.19 2.19 C145.96 2.38, 140.82 0.73, 140.26 1.99" stroke="#000000" stroke-width="1" fill="none"></path></g><g stroke-linecap="round" transform="translate(28 184.70977917981043) rotate(0 132.8044164037858 99.14511041009479)"><path d="M35.2 31.92 C35.2 31.92, 35.2 31.92, 35.2 31.92 M35.2 31.92 C35.2 31.92, 35.2 31.92, 35.2 31.92 M11.97 64.73 C23.75 51.19, 35.52 37.64, 45.43 26.24 M11.97 64.73 C20.26 55.2, 28.55 45.66, 45.43 26.24 M9.74 73.39 C20.12 61.45, 30.51 49.51, 55.67 20.57 M9.74 73.39 C21.5 59.87, 33.26 46.34, 55.67 20.57 M7.51 82.06 C23.85 63.26, 40.19 44.46, 65.9 14.89 M7.51 82.06 C27.26 59.34, 47 36.63, 65.9 14.89 M5.28 90.72 C31.84 60.17, 58.4 29.62, 74.17 11.47 M5.28 90.72 C19.78 74.05, 34.27 57.37, 74.17 11.47 M3.05 99.38 C33.84 63.97, 64.62 28.56, 81.12 9.57 M3.05 99.38 C34.11 63.65, 65.17 27.92, 81.12 9.57 M4.1 104.27 C34.2 69.64, 64.3 35.02, 87.42 8.42 M4.1 104.27 C21.52 84.23, 38.94 64.2, 87.42 8.42 M5.16 109.16 C37.96 71.42, 70.76 33.68, 93.72 7.27 M5.16 109.16 C32.71 77.46, 60.26 45.77, 93.72 7.27 M6.21 114.05 C40.18 74.96, 74.16 35.87, 100.68 5.37 M6.21 114.05 C35 80.92, 63.8 47.79, 100.68 5.37 M7.26 118.93 C41.74 79.26, 76.23 39.59, 106.98 4.22 M7.26 118.93 C37.13 84.57, 67 50.21, 106.98 4.22 M8.31 123.82 C34.52 93.67, 60.73 63.52, 113.28 3.07 M8.31 123.82 C38.56 89.02, 68.81 54.22, 113.28 3.07 M9.36 128.71 C44.93 87.79, 80.51 46.86, 120.23 1.16 M9.36 128.71 C45.1 87.59, 80.84 46.48, 120.23 1.16 M9.75 134.35 C51.89 85.89, 94.02 37.42, 125.87 0.77 M9.75 134.35 C43.1 96, 76.44 57.64, 125.87 0.77 M12.12 137.73 C54.87 88.55, 97.63 39.36, 131.52 0.38 M12.12 137.73 C45.1 99.79, 78.09 61.84, 131.52 0.38 M14.48 141.11 C49.85 100.42, 85.22 59.74, 135.19 2.25 M14.48 141.11 C58.79 90.14, 103.09 39.17, 135.19 2.25 M17.5 143.74 C64.46 89.71, 111.42 35.69, 140.18 2.61 M17.5 143.74 C66.01 87.93, 114.51 32.13, 140.18 2.61 M19.86 147.11 C56.84 104.58, 93.81 62.04, 144.51 3.72 M19.86 147.11 C61.1 99.67, 102.34 52.23, 144.51 3.72 M22.22 150.49 C70.92 94.47, 119.62 38.45, 149.5 4.08 M22.22 150.49 C54.23 113.68, 86.23 76.86, 149.5 4.08 M24.59 153.87 C62.61 110.13, 100.63 66.39, 154.48 4.44 M24.59 153.87 C66.02 106.21, 107.45 58.55, 154.48 4.44 M27.6 156.5 C54.87 125.13, 82.13 93.77, 158.82 5.56 M27.6 156.5 C74 103.12, 120.4 49.74, 158.82 5.56 M29.97 159.88 C65.12 119.44, 100.27 79, 163.8 5.92 M29.97 159.88 C57.98 127.65, 86 95.42, 163.8 5.92 M32.33 163.25 C82.71 105.3, 133.09 47.34, 168.13 7.03 M32.33 163.25 C79.67 108.8, 127 54.34, 168.13 7.03 M34.69 166.63 C69.35 126.76, 104.02 86.89, 173.12 7.39 M34.69 166.63 C64.79 132.01, 94.88 97.4, 173.12 7.39 M38.37 168.5 C72.94 128.73, 107.51 88.96, 178.11 7.75 M38.37 168.5 C69.18 133.06, 99.99 97.62, 178.11 7.75 M42.04 170.37 C92.92 111.84, 143.8 53.31, 182.44 8.87 M42.04 170.37 C83.61 122.55, 125.18 74.74, 182.44 8.87 M45.72 172.24 C84.29 127.87, 122.86 83.5, 186.11 10.73 M45.72 172.24 C86.58 125.24, 127.44 78.24, 186.11 10.73 M48.74 174.87 C100.83 114.94, 152.92 55.01, 190.44 11.85 M48.74 174.87 C96.32 120.13, 143.91 65.39, 190.44 11.85 M52.41 176.74 C102.46 119.16, 152.51 61.59, 194.12 13.72 M52.41 176.74 C83.5 140.97, 114.59 105.2, 194.12 13.72 M56.09 178.61 C98.24 130.11, 140.39 81.62, 197.79 15.59 M56.09 178.61 C107.74 119.19, 159.39 59.77, 197.79 15.59 M59.1 181.23 C94.05 141.03, 128.99 100.84, 201.47 17.46 M59.1 181.23 C87.9 148.1, 116.7 114.98, 201.47 17.46 M62.78 183.1 C97.79 142.82, 132.8 102.55, 205.14 19.33 M62.78 183.1 C112.26 126.17, 161.75 69.25, 205.14 19.33 M66.45 184.97 C120.33 122.99, 174.2 61.02, 209.48 20.44 M66.45 184.97 C119.92 123.46, 173.39 61.96, 209.48 20.44 M70.13 186.84 C122.96 126.06, 175.8 65.28, 213.15 22.31 M70.13 186.84 C125.62 123, 181.12 59.16, 213.15 22.31 M74.46 187.95 C107.87 149.52, 141.27 111.09, 216.82 24.18 M74.46 187.95 C103.75 154.26, 133.04 120.56, 216.82 24.18 M78.79 189.07 C119.63 142.08, 160.48 95.1, 221.16 25.3 M78.79 189.07 C125.23 135.64, 171.67 82.22, 221.16 25.3 M83.12 190.18 C135.24 130.23, 187.36 70.27, 224.17 27.92 M83.12 190.18 C126.45 140.34, 169.79 90.49, 224.17 27.92 M87.45 191.3 C126.55 146.32, 165.65 101.34, 227.19 30.54 M87.45 191.3 C134.98 136.63, 182.5 81.95, 227.19 30.54 M91.78 192.41 C146.32 129.68, 200.85 66.94, 230.21 33.17 M91.78 192.41 C122.91 156.6, 154.04 120.79, 230.21 33.17 M96.11 193.53 C135.97 147.68, 175.83 101.82, 232.58 36.55 M96.11 193.53 C143.21 139.35, 190.3 85.18, 232.58 36.55 M100.45 194.64 C152.23 135.07, 204.02 75.49, 235.59 39.17 M100.45 194.64 C133.28 156.87, 166.12 119.1, 235.59 39.17 M105.43 195 C149.41 144.42, 193.38 93.83, 238.61 41.8 M105.43 195 C157.93 134.61, 210.42 74.22, 238.61 41.8 M109.76 196.12 C146.01 154.42, 182.27 112.71, 241.63 44.42 M109.76 196.12 C160.28 138, 210.8 79.88, 241.63 44.42 M114.09 197.23 C148.44 157.72, 182.78 118.22, 244.65 47.04 M114.09 197.23 C150.35 155.52, 186.61 113.81, 244.65 47.04 M117.77 199.1 C152.57 159.06, 187.38 119.03, 247.01 50.42 M117.77 199.1 C144.2 168.69, 170.64 138.28, 247.01 50.42 M122.76 199.46 C151.03 166.94, 179.3 134.41, 250.03 53.05 M122.76 199.46 C163.95 152.07, 205.15 104.68, 250.03 53.05 M128.4 199.07 C156.95 166.22, 185.5 133.38, 253.05 55.67 M128.4 199.07 C153.81 169.83, 179.23 140.6, 253.05 55.67 M134.04 198.67 C158.35 170.71, 182.66 142.74, 254.76 59.81 M134.04 198.67 C182.02 143.48, 230 88.28, 254.76 59.81 M139.69 198.28 C172.31 160.75, 204.94 123.21, 256.46 63.94 M139.69 198.28 C164.83 169.35, 189.98 140.42, 256.46 63.94 M144.67 198.64 C173.87 165.05, 203.06 131.47, 258.17 68.07 M144.67 198.64 C178.95 159.2, 213.23 119.77, 258.17 68.07 M150.32 198.24 C173.1 172.03, 195.89 145.82, 259.88 72.21 M150.32 198.24 C173.39 171.7, 196.47 145.15, 259.88 72.21 M155.96 197.85 C188.56 160.35, 221.15 122.85, 261.58 76.34 M155.96 197.85 C195.86 151.94, 235.77 106.04, 261.58 76.34 M161.6 197.45 C188.55 166.45, 215.5 135.45, 263.29 80.47 M161.6 197.45 C191.99 162.49, 222.39 127.53, 263.29 80.47 M165.93 198.57 C199.32 160.16, 232.7 121.76, 265 84.61 M165.93 198.57 C195.92 164.07, 225.91 129.58, 265 84.61 M173.54 195.91 C207.14 157.26, 240.74 118.61, 266.05 89.5 M173.54 195.91 C203.77 161.14, 234 126.36, 266.05 89.5 M181.16 193.25 C213.85 155.64, 246.54 118.03, 265.79 95.89 M181.16 193.25 C205.88 164.81, 230.61 136.36, 265.79 95.89 M188.11 191.35 C209.43 166.82, 230.75 142.29, 264.87 103.05 M188.11 191.35 C209.49 166.75, 230.87 142.16, 264.87 103.05 M195.72 188.69 C220.73 159.92, 245.74 131.15, 264.61 109.44 M195.72 188.69 C216.33 164.99, 236.93 141.28, 264.61 109.44 M207.27 181.5 C221.17 165.51, 235.07 149.52, 263.69 116.6 M207.27 181.5 C222.83 163.6, 238.39 145.7, 263.69 116.6 M222.1 170.54 C231.54 159.67, 240.99 148.81, 262.12 124.5 M222.1 170.54 C230.66 160.69, 239.22 150.84, 262.12 124.5 M236.93 159.58 C241.53 154.29, 246.13 148.99, 249.39 145.24 M236.93 159.58 C241.63 154.16, 246.34 148.75, 249.39 145.24" stroke="#15aabf" stroke-width="0.5" fill="none"></path><path d="M132.8 0 C147.77 -1.54, 165.34 2.31, 180.07 6.49 C194.79 10.68, 209.38 17.29, 221.14 25.11 C232.9 32.94, 243.38 42.99, 250.65 53.43 C257.91 63.86, 262.91 76.05, 264.73 87.73 C266.54 99.41, 265.41 112.12, 261.53 123.52 C257.66 134.92, 250.54 146.5, 241.48 156.13 C232.43 165.75, 220.26 174.68, 207.21 181.27 C194.16 187.86, 178.52 192.97, 163.19 195.66 C147.85 198.35, 130.8 198.97, 115.19 197.41 C99.58 195.85, 83.35 191.91, 69.5 186.3 C55.65 180.7, 42.37 172.7, 32.1 163.78 C21.83 154.86, 13.23 143.85, 7.88 132.79 C2.53 121.73, -0.26 109.16, 0.02 97.4 C0.3 85.64, 3.68 73.15, 9.55 62.24 C15.41 51.32, 24.52 40.55, 35.21 31.91 C45.89 23.26, 59.55 15.62, 73.65 10.38 C87.76 5.14, 109.98 2.2, 119.84 0.47 C129.7 -1.26, 130.64 -0.25, 132.8 0 C134.97 0.25, 132.8 0.33, 132.8 1.98 M132.8 0 C147.77 -1.54, 165.34 2.31, 180.07 6.49 C194.79 10.68, 209.38 17.29, 221.14 25.11 C232.9 32.94, 243.38 42.99, 250.65 53.43 C257.91 63.86, 262.91 76.05, 264.73 87.73 C266.54 99.41, 265.41 112.12, 261.53 123.52 C257.66 134.92, 250.54 146.5, 241.48 156.13 C232.43 165.75, 220.26 174.68, 207.21 181.27 C194.16 187.86, 178.52 192.97, 163.19 195.66 C147.85 198.35, 130.8 198.97, 115.19 197.41 C99.58 195.85, 83.35 191.91, 69.5 186.3 C55.65 180.7, 42.37 172.7, 32.1 163.78 C21.83 154.86, 13.23 143.85, 7.88 132.79 C2.53 121.73, -0.26 109.16, 0.02 97.4 C0.3 85.64, 3.68 73.15, 9.55 62.24 C15.41 51.32, 24.52 40.55, 35.21 31.91 C45.89 23.26, 59.55 15.62, 73.65 10.38 C87.76 5.14, 109.98 2.2, 119.84 0.47 C129.7 -1.26, 130.64 -0.25, 132.8 0 C134.97 0.25, 132.8 0.33, 132.8 1.98" stroke="#000000" stroke-width="1" fill="none"></path></g><g transform="translate(45.394321766561006 266.44794952681445) rotate(0 37.87539432176658 16.04889589905366)"><text x="0" y="25.09779179810728" font-family="Cascadia, Segoe UI Emoji" font-size="25.67823343848583px" fill="#000000" text-anchor="start" style="white-space: pre;" direction="ltr">Moral</text></g><g transform="translate(396.5205047318609 265.88012618296375) rotate(0 22.468454258675138 16.04889589905366)"><text x="0" y="25.09779179810728" font-family="Cascadia, Segoe UI Emoji" font-size="25.678233438485844px" fill="#000000" text-anchor="start" style="white-space: pre;" direction="ltr">Law</text></g><g transform="translate(203 10) rotate(0 40 14.5)"><text x="0" y="22" font-family="Cascadia, Segoe UI Emoji" font-size="20px" fill="#000000" text-anchor="start" style="white-space: pre;" direction="ltr">社会关系</text></g><g transform="translate(59 77) rotate(0 191.5 25.5)"><text x="0" y="18.5" font-family="Virgil, Segoe UI Emoji" font-size="20px" fill="#000000" text-anchor="start" style="white-space: pre;" direction="ltr">Man is the sum of social relations</text><text x="0" y="44" font-family="Virgil, Segoe UI Emoji" font-size="20px" fill="#000000" text-anchor="start" style="white-space: pre;" direction="ltr">                         --- Karl Marx</text></g><g stroke-linecap="round" transform="translate(10 166) rotate(0 234.5 117.5)"><path d="M0 0 C134.96 0, 269.91 0, 469 0 M469 0 C469 65.6, 469 131.2, 469 235 M469 235 C329.8 235, 190.59 235, 0 235 M0 235 C0 172.66, 0 110.31, 0 0" stroke="#000000" stroke-width="1.5" fill="none" stroke-dasharray="8 9"></path></g><g stroke-linecap="round" transform="translate(238 227) rotate(0 54 25)"><path d="M0.41 21.56 C0.41 21.56, 0.41 21.56, 0.41 21.56 M0.41 21.56 C0.41 21.56, 0.41 21.56, 0.41 21.56 M2.12 25.69 C5.77 21.49, 9.42 17.29, 16.55 9.09 M2.12 25.69 C7.21 19.84, 12.3 13.98, 16.55 9.09 M3.83 29.83 C8.12 24.88, 12.42 19.94, 22.85 7.94 M3.83 29.83 C9.76 23, 15.7 16.17, 22.85 7.94 M4.88 34.72 C11.6 26.98, 18.33 19.24, 29.81 6.04 M4.88 34.72 C14.39 23.78, 23.9 12.84, 29.81 6.04 M7.24 38.09 C14.11 30.2, 20.97 22.3, 36.76 4.13 M7.24 38.09 C17.26 26.57, 27.27 15.05, 36.76 4.13 M11.57 39.21 C20.31 29.16, 29.05 19.11, 44.37 1.47 M11.57 39.21 C19.68 29.88, 27.78 20.56, 44.37 1.47 M15.25 41.08 C23.84 31.19, 32.44 21.3, 49.36 1.83 M15.25 41.08 C22.93 32.24, 30.61 23.4, 49.36 1.83 M18.92 42.95 C27.02 33.63, 35.11 24.32, 55 1.44 M18.92 42.95 C27.13 33.5, 35.34 24.06, 55 1.44 M22.6 44.82 C37.44 27.74, 52.29 10.65, 59.99 1.8 M22.6 44.82 C30.69 35.51, 38.79 26.19, 59.99 1.8 M26.27 46.69 C41.28 29.42, 56.29 12.16, 64.98 2.16 M26.27 46.69 C39.36 31.63, 52.45 16.57, 64.98 2.16 M29.95 48.56 C39.5 37.56, 49.06 26.56, 69.31 3.27 M29.95 48.56 C41.64 35.1, 53.34 21.64, 69.31 3.27 M34.93 48.92 C45.28 37.02, 55.62 25.12, 74.3 3.63 M34.93 48.92 C48 33.89, 61.06 18.86, 74.3 3.63 M39.92 49.28 C48.71 39.17, 57.49 29.06, 78.63 4.75 M39.92 49.28 C54.98 31.96, 70.03 14.63, 78.63 4.75 M44.91 49.64 C53.37 39.9, 61.83 30.17, 83.61 5.11 M44.91 49.64 C56.48 36.32, 68.06 23, 83.61 5.11 M49.24 50.75 C58.74 39.82, 68.25 28.88, 87.29 6.98 M49.24 50.75 C62.6 35.38, 75.96 20.01, 87.29 6.98 M54.22 51.11 C64.75 39, 75.28 26.89, 90.96 8.85 M54.22 51.11 C64.06 39.79, 73.9 28.47, 90.96 8.85 M60.52 49.96 C69.87 39.21, 79.21 28.47, 94.64 10.72 M60.52 49.96 C73.5 35.04, 86.47 20.11, 94.64 10.72 M66.82 48.81 C77.94 36.02, 89.06 23.23, 97.66 13.34 M66.82 48.81 C73.1 41.6, 79.37 34.38, 97.66 13.34 M73.12 47.66 C82.28 37.13, 91.43 26.6, 101.33 15.21 M73.12 47.66 C79.07 40.83, 85.01 33.99, 101.33 15.21 M79.42 46.51 C89.58 34.82, 99.75 23.13, 105.01 17.08 M79.42 46.51 C84.77 40.36, 90.11 34.21, 105.01 17.08 M85.72 45.37 C91.6 38.6, 97.49 31.83, 106.06 21.97 M85.72 45.37 C92.1 38.02, 98.49 30.68, 106.06 21.97 M90.71 45.73 C94.1 41.83, 97.49 37.93, 106.45 27.61 M90.71 45.73 C95.82 39.84, 100.93 33.96, 106.45 27.61" stroke="#40c057" stroke-width="0.5" fill="none"></path><path d="M54 0 C63.76 -0.34, 76.38 1.76, 84.81 4.47 C93.25 7.18, 101.02 11.82, 104.61 16.28 C108.19 20.73, 108.86 26.6, 106.31 31.21 C103.76 35.81, 97.08 40.8, 89.31 43.91 C81.54 47.02, 69.9 49.36, 59.69 49.86 C49.48 50.36, 37.04 49.21, 28.03 46.92 C19.03 44.63, 10.24 40.4, 5.66 36.14 C1.08 31.89, -0.92 26.09, 0.57 21.38 C2.06 16.68, 7.56 11.38, 14.58 7.91 C21.6 4.44, 36.12 1.87, 42.69 0.55 C49.26 -0.76, 52.11 0.01, 54 0 C55.89 -0.01, 54 0.08, 54 0.5" stroke="#000000" stroke-width="1.5" fill="none" stroke-dasharray="8 9"></path></g><g transform="translate(253 242.5) rotate(0 39 13)"><text x="39" y="18" font-family="Virgil, Segoe UI Emoji" font-size="20px" fill="#000000" text-anchor="middle" style="white-space: pre;" direction="ltr">Civil law</text></g><g stroke-linecap="round" transform="translate(235 262) rotate(0 63.5 32.5)"><path d="M2.56 23.43 C2.56 23.43, 2.56 23.43, 2.56 23.43 M2.56 23.43 C2.56 23.43, 2.56 23.43, 2.56 23.43 M2.3 29.83 C8.75 22.4, 15.2 14.98, 20.67 8.69 M2.3 29.83 C7.56 23.77, 12.83 17.71, 20.67 8.69 M2.7 35.47 C9.37 27.79, 16.05 20.11, 27.63 6.79 M2.7 35.47 C9.52 27.61, 16.35 19.76, 27.63 6.79 M2.43 41.87 C14.66 27.8, 26.89 13.74, 34.58 4.89 M2.43 41.87 C14.03 28.53, 25.62 15.2, 34.58 4.89 M5.45 44.49 C12.79 36.04, 20.14 27.6, 41.54 2.98 M5.45 44.49 C17.16 31.02, 28.87 17.55, 41.54 2.98 M9.13 46.36 C17.28 36.98, 25.44 27.6, 47.84 1.83 M9.13 46.36 C24.5 28.67, 39.87 10.99, 47.84 1.83 M12.15 48.98 C20.78 39.05, 29.42 29.12, 53.48 1.44 M12.15 48.98 C24.1 35.23, 36.06 21.48, 53.48 1.44 M15.17 51.61 C28.96 35.74, 42.76 19.87, 59.12 1.04 M15.17 51.61 C24.63 40.72, 34.09 29.84, 59.12 1.04 M18.18 54.23 C33.31 36.84, 48.43 19.44, 64.76 0.65 M18.18 54.23 C33.02 37.17, 47.85 20.1, 64.76 0.65 M21.2 56.86 C35.53 40.38, 49.85 23.9, 69.1 1.76 M21.2 56.86 C35.39 40.54, 49.58 24.22, 69.1 1.76 M25.53 57.97 C41.49 39.62, 57.44 21.27, 74.08 2.12 M25.53 57.97 C36.44 45.42, 47.36 32.87, 74.08 2.12 M29.86 59.09 C45.07 41.6, 60.27 24.12, 78.41 3.24 M29.86 59.09 C48.51 37.64, 67.16 16.18, 78.41 3.24 M34.2 60.2 C50.74 41.17, 67.28 22.15, 83.4 3.6 M34.2 60.2 C48.14 44.17, 62.08 28.13, 83.4 3.6 M38.53 61.32 C50.49 47.55, 62.46 33.79, 88.39 3.96 M38.53 61.32 C52.75 44.95, 66.98 28.59, 88.39 3.96 M42.86 62.43 C52.84 50.94, 62.83 39.46, 92.72 5.07 M42.86 62.43 C54.42 49.13, 65.98 35.83, 92.72 5.07 M47.19 63.55 C62.41 46.03, 77.64 28.52, 97.71 5.43 M47.19 63.55 C60.76 47.93, 74.34 32.31, 97.71 5.43 M51.52 64.66 C67.04 46.8, 82.57 28.95, 101.38 7.3 M51.52 64.66 C65.01 49.14, 78.5 33.62, 101.38 7.3 M54.54 67.28 C67.5 52.37, 80.46 37.46, 105.06 9.17 M54.54 67.28 C67.97 51.83, 81.4 36.38, 105.06 9.17 M60.18 66.89 C79.21 45, 98.24 23.11, 108.07 11.8 M60.18 66.89 C72.74 52.45, 85.29 38, 108.07 11.8 M65.82 66.5 C75.11 55.81, 84.4 45.13, 111.75 13.67 M65.82 66.5 C78.26 52.19, 90.69 37.89, 111.75 13.67 M71.47 66.1 C85.69 49.73, 99.92 33.37, 115.42 15.54 M71.47 66.1 C86.05 49.32, 100.64 32.54, 115.42 15.54 M77.11 65.71 C92.75 47.71, 108.39 29.72, 119.1 17.41 M77.11 65.71 C91.37 49.3, 105.63 32.89, 119.1 17.41 M82.1 66.07 C93.83 52.57, 105.57 39.06, 122.12 20.03 M82.1 66.07 C92.79 53.76, 103.49 41.46, 122.12 20.03 M88.4 64.92 C100.41 51.1, 112.42 37.28, 123.82 24.16 M88.4 64.92 C102.27 48.96, 116.15 33, 123.82 24.16 M96.66 61.5 C103.78 53.32, 110.9 45.13, 125.53 28.3 M96.66 61.5 C105.86 50.92, 115.06 40.34, 125.53 28.3 M104.28 58.85 C109.12 53.27, 113.97 47.69, 127.24 32.43 M104.28 58.85 C109.05 53.35, 113.83 47.85, 127.24 32.43" stroke="#4c6ef5" stroke-width="0.5" fill="none"></path><path d="M63.5 0 C74.09 -0.46, 87.46 1.87, 96.94 4.87 C106.41 7.88, 115.39 12.92, 120.35 18.02 C125.32 23.13, 127.76 29.84, 126.73 35.52 C125.69 41.2, 120.87 47.56, 114.14 52.11 C107.42 56.66, 96.78 60.76, 86.38 62.82 C75.98 64.87, 62.71 65.49, 51.76 64.44 C40.81 63.39, 28.88 60.34, 20.66 56.49 C12.43 52.64, 5.43 46.84, 2.4 41.35 C-0.64 35.86, -0.61 29.04, 2.45 23.55 C5.52 18.07, 12.56 12.28, 20.81 8.44 C29.06 4.61, 44.85 1.95, 51.96 0.54 C59.08 -0.87, 61.58 -0.02, 63.5 0 C65.42 0.02, 63.5 0.11, 63.5 0.65" stroke="#000000" stroke-width="1.5" fill="none" stroke-dasharray="8 9"></path></g><g transform="translate(250 282) rotate(0 48 13)"><text x="48" y="18" font-family="Virgil, Segoe UI Emoji" font-size="20px" fill="#000000" text-anchor="middle" style="white-space: pre;" direction="ltr">Other law</text></g></svg>