<svg version="1.1" xmlns="http://www.w3.org/2000/svg" viewBox="0 0 1178.5714285714287 630.0000000000002" width="2357.1428571428573" height="1260.0000000000005">
  <!-- svg-source:excalidraw -->
  
  <defs>
    <style>
      @font-face {
        font-family: "Virgil";
        src: url("https://excalidraw.com/Virgil.woff2");
      }
      @font-face {
        font-family: "Cascadia";
        src: url("https://excalidraw.com/Cascadia.woff2");
      }
    </style>
  </defs>
  <rect x="0" y="0" width="1178.5714285714287" height="630.0000000000002" fill="#ffffff"></rect><g stroke-opacity="0.9" fill-opacity="0.9" stroke-linecap="round" transform="translate(10 10) rotate(0 579.2857142857143 305.0000000000001)"><path d="M0 0 C281.56 0, 563.11 0, 1158.57 0 M1158.57 0 C1158.57 188.57, 1158.57 377.15, 1158.57 610 M1158.57 610 C886.23 610, 613.9 610, 0 610 M0 610 C0 415.66, 0 221.32, 0 0" stroke="#000000" stroke-width="1.5" fill="none" stroke-dasharray="1.5 7"></path></g><g stroke-linecap="round"><g stroke-opacity="0.9" fill-opacity="0.9" transform="translate(368.5481710458532 69.65529550305308) rotate(0 18.156620298815028 15.7449768160742)" fill-rule="evenodd"><path d="M7.66 0 L28.65 0 L49.65 31.49 L-13.33 31.49 L7.66 0" stroke="none" stroke-width="0" fill="#fff" fill-rule="evenodd"></path><path d="M7.66 0 C15.45 0, 23.24 0, 28.65 0 M7.66 0 C14.35 0, 21.03 0, 28.65 0 M28.65 0 C34.63 8.97, 40.61 17.94, 49.65 31.49 M28.65 0 C32.89 6.36, 37.14 12.72, 49.65 31.49 M49.65 31.49 C35.82 31.49, 21.99 31.49, -13.33 31.49 M49.65 31.49 C34.9 31.49, 20.15 31.49, -13.33 31.49 M-13.33 31.49 C-7 21.98, -0.66 12.48, 7.66 0 M-13.33 31.49 C-9 24.99, -4.66 18.48, 7.66 0 M7.66 0 C7.66 0, 7.66 0, 7.66 0 M7.66 0 C7.66 0, 7.66 0, 7.66 0" stroke="#000000" stroke-width="1" fill="none"></path></g></g><g stroke-opacity="0.9" fill-opacity="0.9" stroke-linecap="round" transform="translate(355.2148377125177 69.65529550305308) rotate(0 31.489953632148342 15.7449768160742)"><path d="M0 0 C12.82 0, 25.64 0, 62.98 0 M0 0 C15.3 0, 30.61 0, 62.98 0 M62.98 0 C62.98 7.14, 62.98 14.28, 62.98 31.49 M62.98 0 C62.98 12.34, 62.98 24.68, 62.98 31.49 M62.98 31.49 C48.44 31.49, 33.9 31.49, 0 31.49 M62.98 31.49 C38.47 31.49, 13.97 31.49, 0 31.49 M0 31.49 C0 24.12, 0 16.76, 0 0 M0 31.49 C0 20.23, 0 8.98, 0 0" stroke="transparent" stroke-width="1" fill="none"></path></g><g stroke-linecap="round"><g stroke-opacity="0.9" fill-opacity="0.9" transform="translate(396.8964451313743 47.45745933612983) rotate(0 -9.933539412673895 10.066460587326105)" fill-rule="evenodd"><path d="M-9.93 0 L-20 20.13 L0.13 20.13 L-9.93 0" stroke="none" stroke-width="0" fill="#fff" fill-rule="evenodd"></path><path d="M-9.93 0 C-13.58 7.3, -17.23 14.59, -20 20.13 M-9.93 0 C-13.32 6.78, -16.71 13.56, -20 20.13 M-20 20.13 C-15.73 20.13, -11.47 20.13, 0.13 20.13 M-20 20.13 C-12.12 20.13, -4.25 20.13, 0.13 20.13 M0.13 20.13 C-3.02 13.83, -6.17 7.53, -9.93 0 M0.13 20.13 C-2.63 14.6, -5.4 9.07, -9.93 0 M-9.93 0 C-9.93 0, -9.93 0, -9.93 0 M-9.93 0 C-9.93 0, -9.93 0, -9.93 0" stroke="#000000" stroke-width="1" fill="none"></path></g></g><g stroke-opacity="0.9" fill-opacity="0.9" stroke-linecap="round" transform="translate(376.8964451313743 47.45745933612983) rotate(0 10.066460587326105 10.066460587326105)"><path d="M0 0 C7.01 0, 14.01 0, 20.13 0 M0 0 C5.05 0, 10.09 0, 20.13 0 M20.13 0 C20.13 4.05, 20.13 8.09, 20.13 20.13 M20.13 0 C20.13 7.06, 20.13 14.13, 20.13 20.13 M20.13 20.13 C15.98 20.13, 11.83 20.13, 0 20.13 M20.13 20.13 C14.22 20.13, 8.31 20.13, 0 20.13 M0 20.13 C0 15.26, 0 10.38, 0 0 M0 20.13 C0 13.18, 0 6.23, 0 0" stroke="transparent" stroke-width="1" fill="none"></path></g><g stroke-linecap="round"><g stroke-opacity="0.9" fill-opacity="0.9" transform="translate(326.19062339000504 104.50073599764613) rotate(0 59.48171045852649 50.07418856259659)" fill-rule="evenodd"><path d="M26.1 0 L92.86 0 L159.63 100.15 L-40.67 100.15 L26.1 0" stroke="none" stroke-width="0" fill="#fff" fill-rule="evenodd"></path><path d="M26.1 0 C40.33 0, 54.56 0, 92.86 0 M26.1 0 C46.58 0, 67.06 0, 92.86 0 M92.86 0 C108.65 23.68, 124.43 47.35, 159.63 100.15 M92.86 0 C112.55 29.54, 132.24 59.07, 159.63 100.15 M159.63 100.15 C83.67 100.15, 7.72 100.15, -40.67 100.15 M159.63 100.15 C87.02 100.15, 14.41 100.15, -40.67 100.15 M-40.67 100.15 C-26.11 78.31, -11.55 56.47, 26.1 0 M-40.67 100.15 C-16.25 63.52, 8.17 26.9, 26.1 0 M26.1 0 C26.1 0, 26.1 0, 26.1 0 M26.1 0 C26.1 0, 26.1 0, 26.1 0" stroke="#000000" stroke-width="1" fill="none"></path></g></g><g stroke-opacity="0.9" fill-opacity="0.9" stroke-linecap="round" transform="translate(285.5239567233382 104.50073599764613) rotate(0 100.14837712519318 50.07418856259659)"><path d="M0 0 C44.79 0, 89.58 0, 200.3 0 M0 0 C77.02 0, 154.04 0, 200.3 0 M200.3 0 C200.3 26.42, 200.3 52.84, 200.3 100.15 M200.3 0 C200.3 29.02, 200.3 58.03, 200.3 100.15 M200.3 100.15 C132.77 100.15, 65.25 100.15, 0 100.15 M200.3 100.15 C134.58 100.15, 68.87 100.15, 0 100.15 M0 100.15 C0 61.32, 0 22.49, 0 0 M0 100.15 C0 62.42, 0 24.7, 0 0" stroke="transparent" stroke-width="1" fill="none"></path></g><g stroke-linecap="round"><g stroke-opacity="0.9" fill-opacity="0.9" transform="translate(207.3333333333327 210.58574372561947) rotate(0 178.08088614116417 153.7071097372487)" fill-rule="evenodd"><path d="M75.61 0 L280.55 0 L485.5 307.41 L-129.33 307.41 L75.61 0" stroke="none" stroke-width="0" fill="#fff" fill-rule="evenodd"></path><path d="M75.61 0 C131.7 0, 187.8 0, 280.55 0 M75.61 0 C135.49 0, 195.36 0, 280.55 0 M280.55 0 C339.22 88, 397.89 176.01, 485.5 307.41 M280.55 0 C323.57 64.53, 366.59 129.05, 485.5 307.41 M485.5 307.41 C253.25 307.41, 21 307.41, -129.33 307.41 M485.5 307.41 C299.39 307.41, 113.29 307.41, -129.33 307.41 M-129.33 307.41 C-72.21 221.73, -15.08 136.04, 75.61 0 M-129.33 307.41 C-84.35 239.95, -39.38 172.48, 75.61 0 M75.61 0 C75.61 0, 75.61 0, 75.61 0 M75.61 0 C75.61 0, 75.61 0, 75.61 0" stroke="#000000" stroke-width="1" fill="none"></path></g></g><g stroke-opacity="0.9" fill-opacity="0.9" stroke-linecap="round" transform="translate(78.0000000000025 210.58574372561947) rotate(0 307.4142194744973 153.70710973724863)"><path d="M0 0 C171.05 0, 342.11 0, 614.83 0 M0 0 C230.03 0, 460.06 0, 614.83 0 M614.83 0 C614.83 105.72, 614.83 211.44, 614.83 307.41 M614.83 0 C614.83 116.89, 614.83 233.78, 614.83 307.41 M614.83 307.41 C413.19 307.41, 211.56 307.41, 0 307.41 M614.83 307.41 C371.08 307.41, 127.33 307.41, 0 307.41 M0 307.41 C0 242.54, 0 177.66, 0 0 M0 307.41 C0 225.5, 0 143.58, 0 0" stroke="transparent" stroke-width="1" fill="none"></path></g><g stroke-linecap="round"><g stroke-opacity="0.9" fill-opacity="0.9" transform="translate(398.3568116582019 47.880952380952465) rotate(0 257.37690439390576 235.7142857142856)"><path d="M0 -1.38 C140.31 -1.78, 280.63 -2.19, 514.75 -2.86 M514.75 -2.86 C514.13 98, 513.51 198.85, 511.8 474.29 M511.8 474.29 C455.61 473.7, 399.42 473.11, 300.89 472.07" stroke="#000000" stroke-width="1.5" fill="none" stroke-dasharray="1.5 7"></path></g></g><g stroke-opacity="0.9" fill-opacity="0.9" transform="translate(950 498.88095238095235) rotate(0 58 14.5)"><text x="0" y="22" font-family="Virgil, Segoe UI Emoji" font-size="20px" fill="#000000" text-anchor="start" style="white-space: pre;" direction="ltr">单位：万亿$</text></g><g stroke-opacity="0.9" fill-opacity="0.9" transform="translate(96.84279090307115 318.36428203429665) rotate(0 40 11.5)"><text x="40" y="17" font-family="Virgil, Segoe UI Emoji" font-size="16px" fill="#000000" text-anchor="middle" style="white-space: pre;" direction="ltr">土地和房产</text></g><g stroke-opacity="0.9" fill-opacity="0.9" transform="translate(308.57142857142844 73.1666666666668) rotate(0 16 11.5)"><text x="0" y="17" font-family="Virgil, Segoe UI Emoji" font-size="16px" fill="#000000" text-anchor="start" style="white-space: pre;" direction="ltr">现金</text></g><g stroke-opacity="0.9" fill-opacity="0.9" transform="translate(325.71428571428555 44.595238095238074) rotate(0 16 11.499999999999972)"><text x="0" y="17" font-family="Virgil, Segoe UI Emoji" font-size="16px" fill="#000000" text-anchor="start" style="white-space: pre;" direction="ltr">黄金</text></g><g stroke-opacity="0.9" fill-opacity="0.9" transform="translate(604.2857142857141 326.09523809523813) rotate(0 27 13)"><text x="0" y="18" font-family="Virgil, Segoe UI Emoji" font-size="20px" fill="#000000" text-anchor="start" style="white-space: pre;" direction="ltr">200+</text></g><g stroke-opacity="0.9" fill-opacity="0.9" transform="translate(474.2857142857141 124.59523809523813) rotate(0 35 14.5)"><text x="0" y="22" font-family="Virgil, Segoe UI Emoji" font-size="20px" fill="#000000" text-anchor="start" style="white-space: pre;" direction="ltr">70～90</text></g><g stroke-opacity="0.9" fill-opacity="0.9" transform="translate(438.57142857142844 74.59523809523813) rotate(0 13.5 13)"><text x="0" y="18" font-family="Virgil, Segoe UI Emoji" font-size="20px" fill="#000000" text-anchor="start" style="white-space: pre;" direction="ltr">30</text></g><g stroke-opacity="0.9" fill-opacity="0.9" transform="translate(417.142857142857 43.16666666666657) rotate(0 21.5 14.5)"><text x="0" y="22" font-family="Virgil, Segoe UI Emoji" font-size="20px" fill="#000000" text-anchor="start" style="white-space: pre;" direction="ltr">7～9</text></g><g stroke-opacity="0.9" fill-opacity="0.9" transform="translate(961.4285714285713 264.595238095238) rotate(0 45 13)"><text x="0" y="18" font-family="Virgil, Segoe UI Emoji" font-size="20px" fill="#000000" text-anchor="start" style="white-space: pre;" direction="ltr">300-400</text></g><g stroke-opacity="0.9" fill-opacity="0.9" transform="translate(272.8151909913885 125.78921027452833) rotate(0 16 11.5)"><text x="16" y="17" font-family="Virgil, Segoe UI Emoji" font-size="16px" fill="#000000" text-anchor="middle" style="white-space: pre;" direction="ltr">股票</text></g><g stroke-opacity="0.9" fill-opacity="0.9" transform="translate(550 566.7380952380954) rotate(0 40 14.5)"><text x="0" y="22" font-family="Virgil, Segoe UI Emoji" font-size="20px" fill="#000000" text-anchor="start" style="white-space: pre;" direction="ltr">钱的分布</text></g></svg>